<svg xmlns="http://www.w3.org/2000/svg" width="64" height="64" viewBox="0 0 64 64" fill="none">
  <rect width="64" height="64" rx="18" fill="#25D366"/>
  <path d="M32.066 13C21.551 13 13 21.307 13 31.519c0 3.897 1.247 7.62 3.614 10.761L14 51l9.068-2.5A19.28 19.28 0 0 0 32.066 50C42.58 50 51 41.693 51 31.48 51 21.268 42.58 13 32.066 13Z" fill="white"/>
  <path d="M39.598 35.86c-.41-.203-2.42-1.18-2.8-1.312-.38-.134-.657-.202-.934.203-.277.406-1.073 1.312-1.317 1.582-.241.27-.485.304-.894.101-.41-.202-1.73-.629-3.295-2.004-1.217-1.069-2.038-2.388-2.278-2.793-.241-.406-.026-.625.18-.826.185-.18.41-.472.616-.709.205-.236.274-.404.41-.675.136-.27.068-.506-.034-.708-.103-.203-.924-2.196-1.266-3.009-.334-.796-.672-.688-.924-.7l-.786-.014c-.273 0-.717.101-1.093.507-.375.405-1.434 1.386-1.434 3.38 0 1.992 1.469 3.918 1.674 4.188.205.27 2.89 4.576 7.138 6.227.99.429 1.763.686 2.365.878.995.316 1.9.272 2.615.165.798-.119 2.42-.979 2.762-1.925.34-.946.34-1.756.239-1.925-.102-.169-.376-.27-.786-.473Z" fill="#25D366"/>
</svg>
